<svg width="20" height="19" viewBox="0 0 20 19" fill="none" xmlns="http://www.w3.org/2000/svg">
<path d="M20 17.4553V17.8983C19.8689 18.3851 19.5544 18.8023 19.0647 18.9274C13.0338 19.0242 6.9691 19.0242 0.938163 18.9274C0.317411 18.7775 -0.11648 18.0662 0.0278244 17.4205C2.93249 11.7414 6.00348 6.13128 9.00843 0.501524C9.47069 -0.147209 10.4681 -0.171423 10.9582 0.457132L19.8503 17.0654L20 17.4553ZM9.95497 6.58983C9.32052 6.61455 8.82353 7.15986 8.79466 7.80456L9.5969 12.777C9.71479 13.3238 10.2583 13.347 10.4055 12.777C10.8066 11.2273 10.8565 9.38957 11.2116 7.8086C11.1794 7.12808 10.6261 6.5641 9.95497 6.58983ZM10.8467 14.3681C9.79305 13.3072 8.13331 14.81 9.06468 16.0242C10.1125 17.3903 12.0285 15.5581 10.8467 14.3681Z" fill="#FA7D6B"/>
</svg>
